<?xml version="1.0" encoding="utf-8"?>
<!-- Generator: Adobe Illustrator 19.2.0, SVG Export Plug-In . SVG Version: 6.00 Build 0)  -->
<svg version="1.1" id="Layer_1" xmlns="http://www.w3.org/2000/svg" xmlns:xlink="http://www.w3.org/1999/xlink" x="0px" y="0px"
	 viewBox="0 0 153.7 146.6" style="enable-background:new 0 0 153.7 146.6;" xml:space="preserve">
<style type="text/css">
	.st0{fill:#B21A49;}
	.st1{fill:#00A0B2;}
	.st2{fill:#FFBB41;}
	.st3{fill:#20ACBC;}
</style>
<g>
	<g>
		<path class="st0" d="M18.5,146.1c0,0,0.3-0.4,0.9-1.2c0.6-0.8,1.4-1.9,2.7-3.2c0.6-0.7,1.3-1.5,2.1-2.2c0.8-0.8,1.7-1.6,2.6-2.5
			c1-0.8,2-1.7,3.1-2.7c1.1-0.9,2.4-1.8,3.7-2.7c2.6-1.8,5.6-3.7,8.9-5.3c1.6-0.9,3.4-1.6,5.1-2.4c0.9-0.4,1.8-0.7,2.7-1.1
			c0.9-0.3,1.9-0.7,2.8-1c1-0.3,1.9-0.6,2.9-0.9c1-0.3,2-0.5,3-0.8c2-0.6,4.1-0.9,6.2-1.3c4.2-0.7,8.5-1,12.9-1.1l3.2,0.1
			c1,0,2.1,0.1,3.2,0.2c2.2,0.1,4.3,0.5,6.5,0.8c2.1,0.4,4.2,0.7,6.2,1.3c1,0.3,2,0.5,3,0.8c1,0.3,2,0.6,2.9,0.9
			c1,0.3,1.9,0.6,2.8,1c0.9,0.3,1.9,0.7,2.7,1.1c1.8,0.8,3.5,1.6,5.1,2.4c3.3,1.6,6.2,3.5,8.9,5.3c1.3,0.9,2.5,1.8,3.7,2.7
			c1.1,0.9,2.1,1.8,3.1,2.7c0.9,0.9,1.8,1.7,2.6,2.5c0.8,0.8,1.5,1.6,2.1,2.2c1.3,1.3,2.1,2.5,2.7,3.3c0.6,0.8,0.9,1.2,0.9,1.2l0,0
			c0.1,0.1,0.1,0.3,0,0.3c-0.1,0.1-0.2,0.1-0.3,0c0,0-0.4-0.3-1.1-1c-0.7-0.6-1.7-1.6-3.1-2.8c-0.7-0.6-1.4-1.2-2.3-1.9
			c-0.9-0.7-1.8-1.4-2.8-2.1c-1-0.7-2.1-1.5-3.3-2.2c-1.2-0.7-2.4-1.5-3.8-2.3c-2.7-1.5-5.6-3.1-8.9-4.5c-1.6-0.7-3.3-1.3-5-2
			c-0.9-0.3-1.8-0.6-2.7-0.9c-0.9-0.3-1.8-0.6-2.7-0.8c-3.7-1.1-7.6-1.9-11.6-2.5c-4-0.6-8.1-0.8-12.2-0.8c-4.1,0-8.2,0.3-12.2,0.8
			c-4,0.6-7.9,1.4-11.6,2.5c-0.9,0.2-1.8,0.5-2.7,0.8c-0.9,0.3-1.8,0.6-2.7,0.9c-1.7,0.7-3.4,1.3-5,2c-3.2,1.4-6.2,3-8.9,4.5
			c-1.3,0.8-2.6,1.6-3.8,2.3c-1.2,0.8-2.3,1.5-3.3,2.2c-1,0.8-1.9,1.5-2.8,2.1c-0.9,0.6-1.6,1.3-2.3,1.9c-1.4,1.1-2.4,2.1-3.1,2.8
			c-0.7,0.7-1.1,1-1.1,1c-0.1,0.1-0.3,0.1-0.4,0C18.4,146.4,18.4,146.3,18.5,146.1L18.5,146.1z"/>
	</g>
	<g>
		<path class="st1" d="M15.4,38.7c0,0,0-0.5,0.1-1.4c0-0.4,0.1-1,0.2-1.7c0.1-0.3,0.1-0.7,0.2-1c0.1-0.4,0.2-0.8,0.3-1.2
			c0.4-1.6,1.1-3.6,2.3-5.7c1.2-2.1,2.9-4.2,5.3-6.2c1.2-0.9,2.5-1.8,4-2.5c0.4-0.2,0.8-0.4,1.1-0.6c0.4-0.1,0.8-0.3,1.2-0.5
			c0.8-0.3,1.7-0.5,2.6-0.7c0.4-0.1,0.9-0.2,1.4-0.2l0.7-0.1l0.3-0.1c-0.1,0,0.2,0,0.2,0l0,0l0.1,0l0.2,0c0.9,0,1.6-0.2,2.7-0.1
			c0.5,0,1.1,0,1.6,0.1c0.5,0.1,1,0.2,1.5,0.2c1,0.2,2,0.5,3,0.8c2,0.7,3.9,1.7,5.7,2.9c1.8,1.3,3.4,2.9,4.7,4.7
			c1.4,1.8,2.4,3.9,3.1,6.1c0.7,2.2,1,4.6,1.1,6.9l-0.1,1.6c0,0.3,0,0.4-0.1,0.8L58.6,42c-0.1,0.6-0.2,1.3-0.3,1.8l-0.5,1.7
			c-0.7,2.2-1.8,4.3-3.1,6.1c-1.4,1.8-3,3.4-4.7,4.7c-1.8,1.2-3.7,2.3-5.7,2.9c-2,0.7-4,1.1-6,1.1c-1,0.1-1.9,0-2.9,0l-0.5,0
			l-0.3-0.1L34,60.2c-0.4-0.1-0.8-0.1-1.3-0.2c-0.9-0.2-1.9-0.4-2.7-0.8c-0.4-0.2-0.8-0.3-1.2-0.5c-0.4-0.2-0.8-0.4-1.1-0.5
			c-1.5-0.7-2.8-1.6-4-2.5c-2.4-1.9-4.1-4.1-5.3-6.1c-1.2-2.1-1.9-4-2.3-5.7c-0.1-0.4-0.2-0.8-0.3-1.2c-0.1-0.4-0.1-0.7-0.2-1
			c-0.1-0.6-0.2-1.2-0.2-1.7C15.4,39.2,15.4,38.7,15.4,38.7L15.4,38.7z M15.9,38.7c0,0,0,0.5,0.1,1.3c0,0.4,0.1,1,0.2,1.6
			c0.1,0.3,0.1,0.7,0.2,1c0.1,0.4,0.2,0.7,0.3,1.1c0.5,1.6,1.2,3.5,2.4,5.4c1.3,1.9,3,3.8,5.4,5.4c2.3,1.5,5.2,2.7,8.4,3
			c3.2,0.3,6.6-0.1,9.8-1.5c1.6-0.7,3.1-1.7,4.5-2.8c1.4-1.2,2.6-2.5,3.6-4c1-1.5,1.8-3.2,2.3-5c0.5-1.8,0.7-3.6,0.8-5.5
			c0-1.9-0.3-3.7-0.8-5.5c-0.6-1.8-1.3-3.4-2.3-5c-1-1.5-2.2-2.9-3.6-4c-1.4-1.1-2.9-2.1-4.5-2.8c-1.6-0.7-3.3-1.2-4.9-1.4
			c-0.8-0.2-1.7-0.2-2.5-0.2c-0.8,0-1.6,0-2.4,0.1c-3.2,0.4-6.1,1.5-8.4,3c-2.3,1.6-4.1,3.5-5.4,5.4c-1.3,1.9-2,3.8-2.4,5.4
			c-0.1,0.4-0.2,0.8-0.3,1.1c-0.1,0.4-0.1,0.7-0.2,1c-0.1,0.6-0.2,1.2-0.2,1.6C16,38.2,15.9,38.7,15.9,38.7L15.9,38.7z"/>
	</g>
	<g>
		<path class="st1" d="M90.5,38.7c0,0,0-0.5,0.1-1.4c0-0.4,0.1-1,0.2-1.7c0.1-0.3,0.1-0.7,0.2-1c0.1-0.4,0.2-0.8,0.3-1.2
			c0.4-1.6,1.1-3.6,2.3-5.7c1.2-2.1,2.9-4.2,5.3-6.2c1.2-0.9,2.5-1.8,4-2.5c0.4-0.2,0.8-0.4,1.1-0.6c0.4-0.1,0.8-0.3,1.2-0.5
			c0.8-0.3,1.7-0.5,2.6-0.7c0.4-0.1,0.9-0.2,1.4-0.2l0.7-0.1l0.3-0.1c-0.1,0,0.2,0,0.2,0l0,0l0.1,0l0.2,0c0.9,0,1.6-0.2,2.7-0.1
			c0.5,0,1.1,0,1.6,0.1c0.5,0.1,1,0.2,1.5,0.2c1,0.2,2,0.5,3,0.8c2,0.7,3.9,1.7,5.7,2.9c1.8,1.3,3.4,2.9,4.7,4.7
			c1.4,1.8,2.4,3.9,3.1,6.1c0.3,1.1,0.7,2.2,0.8,3.4c0.1,0.6,0.2,1.2,0.2,1.7l0.1,0.9l0,0.4l0,0.2l0,0.1l0,0.1c0,0.1,0-0.2,0,0.3
			l-0.1,1.4c0,0.3,0,0.4-0.1,0.8l-0.1,0.9c-0.1,0.6-0.2,1.3-0.3,1.8l-0.5,1.7c-0.7,2.2-1.8,4.3-3.1,6.1c-1.4,1.8-3,3.4-4.7,4.7
			c-1.8,1.2-3.7,2.3-5.7,2.9c-2,0.7-4,1.1-6,1.1c-1,0.1-1.9,0-2.9,0l-0.5,0l-0.3-0.1l-0.6-0.1c-0.4-0.1-0.8-0.1-1.3-0.2
			c-0.9-0.2-1.9-0.4-2.7-0.8c-0.4-0.2-0.8-0.3-1.2-0.5c-0.4-0.2-0.8-0.4-1.1-0.5c-1.5-0.7-2.8-1.6-4-2.5c-2.4-1.9-4.1-4.1-5.3-6.1
			c-1.2-2.1-1.9-4-2.3-5.7c-0.1-0.4-0.2-0.8-0.3-1.2c-0.1-0.4-0.1-0.7-0.2-1c-0.1-0.6-0.2-1.2-0.2-1.7
			C90.5,39.2,90.5,38.7,90.5,38.7L90.5,38.7z M91,38.7c0,0,0,0.5,0.1,1.3c0,0.4,0.1,1,0.2,1.6c0.1,0.3,0.1,0.7,0.2,1
			c0.1,0.4,0.2,0.7,0.3,1.1c0.5,1.6,1.2,3.5,2.4,5.4c1.3,1.9,3,3.8,5.4,5.4c2.3,1.5,5.2,2.7,8.4,3c3.2,0.3,6.6-0.1,9.8-1.5
			c1.6-0.7,3.1-1.7,4.5-2.8c1.4-1.2,2.6-2.5,3.6-4c1-1.5,1.8-3.2,2.3-5c0.5-1.8,0.7-3.6,0.8-5.5c0-1.8-0.3-3.7-0.8-5.4
			c-0.6-1.8-1.3-3.4-2.3-5c-1-1.5-2.2-2.9-3.6-4c-1.4-1.1-2.9-2.1-4.5-2.8c-1.6-0.7-3.3-1.2-4.9-1.4c-0.8-0.2-1.7-0.2-2.5-0.2
			c-0.8,0-1.6,0-2.4,0.1c-3.2,0.4-6.1,1.5-8.4,3c-2.3,1.6-4.1,3.5-5.4,5.4c-1.3,1.9-2,3.8-2.4,5.4c-0.1,0.4-0.2,0.8-0.3,1.1
			c-0.1,0.4-0.1,0.7-0.2,1c-0.1,0.6-0.2,1.2-0.2,1.6C91,38.2,91,38.7,91,38.7L91,38.7z"/>
	</g>
	<circle class="st1" cx="35" cy="38.7" r="4.4"/>
	<circle class="st1" cx="110.1" cy="38.7" r="4.4"/>
	<g>
		<g>
			<g>
				<path class="st2" d="M69.3,58.5c0-0.1,0-0.1,0.3-0.2c0.9-0.3,2.6-0.6,4.6-0.5c2,0.1,4.4,0.7,6.9,2.4c0.1,0.1,0.4,0.3,0.4,0.5
					c-1.1,6.5-2.8,13-5.1,19.2c-1.1,3.1-2.4,6.2-3.8,9.2l-0.5,1.1l-0.1,0.3l0,0c0,0,0,0,0,0l0,0l0,0c0,0,0,0,0,0
					c0,0-0.4,0.3-0.1,0.9c0,0.1,0.1,0.1,0.1,0.2c0,0,0.2,0.1,0.3,0.1l0.4,0.1c0.6,0.2,1.2,0.4,1.7,0.5c1.2,0.4,2.5,0.7,3.6,1.1
					c2,0.4,3.3,0.9,4.2,1.3c0.9,0.5,1.2,1.1,1.1,1.7c-0.1,1.3-2.1,2.8-4.7,3.8c0.3,0.1-2.9,1.1-6.4,1.5l-0.6,0.1c-0.3,0-0.7,0-1,0
					c-0.7,0-1.4,0-2.1,0c-1.4,0-2.7-0.1-3.9-0.2c-1.2-0.1-2.1-0.2-2.7-0.3c-0.7-0.1-1-0.1-1-0.1l-7.9-1.9l4.8-8.4l2.3-4.2
					c0.2-0.4,0.4-0.7,0.5-1.1l0.4-0.8l0.5-1c1.2-2.7,2.4-5.4,3.3-8.2C66.8,70.1,68.3,64.3,69.3,58.5z"/>
			</g>
		</g>
	</g>
	<g>
		<g>
			<g>
				<path class="st3" d="M43.6,0c0.1,0,0.1-0.1,0.4,0.2c1.5,1.2,4.6,4.8,5.1,10.5c0,0.1,0,0.5-0.1,0.6c-0.1,0.1-2.2,1.1-5.3,2.5
					c-3.1,1.5-7.2,3.4-11.3,5.2c-4.1,1.9-8.2,3.7-11.3,5c-1.6,0.7-2.9,1.2-3.8,1.6c-1,0.4-1.6,0.6-1.6,0.6s-0.4,0.1-1.1,0.2
					c-0.7,0.1-1.7,0.2-2.9,0.3c-2.4,0.1-5.7-0.1-8.2-1.5c-2.1-1-3.1-2.3-3.4-3.2c-0.3-0.9,0-1.5,0.5-1.9c0.5-0.4,1.1-0.6,1.8-0.9
					c0.7-0.2,1.4-0.5,2.1-0.8c-0.1-0.1,0.3-0.2,0.9-0.4c0.6-0.2,1.5-0.6,2.4-1.1c1.8-1,3.8-2.4,3.8-2.4s0.5-0.2,1.3-0.5
					c0.9-0.4,2.1-0.9,3.6-1.6c3-1.3,7-3.1,11-4.9c4-1.8,8-3.7,11-5.1C41.4,1.1,43.5,0.1,43.6,0z"/>
			</g>
		</g>
	</g>
	<g>
		<g>
			<g>
				<path class="st3" d="M99.4,9.6c-0.1-0.1-0.1-0.1,0-0.4c0.2-1,0.7-2.6,1.9-4.2c1.2-1.6,3-3.3,5.5-4.8c0.1-0.1,0.4-0.2,0.5-0.2
					c0,0,0.5,0.4,1.3,1c0.8,0.6,1.9,1.4,3.3,2.3c2.7,1.9,6.5,4,10.6,5.6c4,1.7,8.2,2.8,11.4,3.4c3.2,0.6,5.4,0.8,5.4,0.8
					s0.3,0.1,0.9,0.3c0.6,0.2,1.4,0.5,2.3,0.8c1.9,0.6,4.4,1.4,6.5,2.2c3.6,1,5,2.2,4.7,3.4c-0.1,0.6-0.6,1.2-1.4,1.8
					c-0.8,0.6-1.8,1.2-3,1.6c0.3,0.1-2.6,0.9-5.7,1.4c-1.5,0.3-3.1,0.4-4.2,0.6c-1.2,0.1-2,0.1-2,0.1s-0.6-0.1-1.8-0.2
					c-1.1-0.2-2.7-0.4-4.6-0.8c-3.8-0.7-8.8-2.1-13.6-4.1c-4.8-2-9.4-4.5-12.6-6.8c-1.6-1.1-3-2.1-3.9-2.8
					C100,10.1,99.4,9.7,99.4,9.6z"/>
			</g>
		</g>
	</g>
</g>
</svg>
